<?xml version="1.0" encoding="utf-8"?>
<!-- Generator: Adobe Illustrator 23.0.6, SVG Export Plug-In . SVG Version: 6.00 Build 0)  -->
<svg version="1.1" id="Layer_1" xmlns="http://www.w3.org/2000/svg" xmlns:xlink="http://www.w3.org/1999/xlink" x="0px" y="0px"
	 viewBox="0 0 38 37" style="enable-background:new 0 0 38 37;" xml:space="preserve">
<style type="text/css">
	.st0{fill:#FFFFFF;}
</style>
<path class="st0" d="M10.2,14.8C10.2,14.8,10.2,14.8,10.2,14.8l1.7,1.8c0.5,0.5,1,0.7,1.7,0.7c0.7,0,1.3-0.2,1.8-0.7
	c-0.5-0.5-1-1-1.5-1.6c-0.5-0.5-1-1-1.5-1.5l0,0c-1-1-2-2.1-3-3.1c-1-1-2-2.1-3-3.1C6,6.9,5.8,6.6,5.8,6.2C5.1,6.9,4.5,7.7,3.9,8.5
	C4.2,8.6,4.4,8.8,4.6,9L10.2,14.8z"/>
<path class="st0" d="M27.2,18.1c-0.5-0.5-1.1-0.7-1.7-0.8c-0.7,0-1.3,0.2-1.8,0.7l-3.5,3.4c-0.5,0.5-0.7,1.1-0.8,1.7
	c0,0.7,0.2,1.3,0.7,1.8c0.4,0.4,0.7,0.7,1.1,1.1c0.4,0.4,0.7,0.7,1.1,1.1c0.9,0.9,0.9,1.8,0,2.6l-0.4,0.4l-0.4,0.4
	c-0.9,0.9-1.8,0.9-2.6,0c-0.4-0.4-0.7-0.7-1.1-1.1c-0.4-0.4-0.7-0.7-1.1-1.1c-1.4-1.5-2.1-3.2-2.1-5.3c0-0.3,0-0.7,0.1-1
	c-0.3,0-0.6,0.1-1,0c-2.1,0-3.8-0.8-5.2-2.2l-1.7-1.8l-1.7-1.8l-3.2-3.3C1.3,14.9,1,16.6,1,18.4v18h18c1.6,0,3.2-0.2,4.7-0.6
	L23,35.1c-0.9-0.9-0.9-1.8,0-2.6l0.4-0.4l4.5-4.4l2.6-2.5c0.5-0.5,0.7-1,0.7-1.7c0-0.7-0.2-1.3-0.7-1.7L27.2,18.1z"/>
<path class="st0" d="M15.1,10.1L15.1,10.1c1,1,2,2.1,3,3.1c0.7,0.7,1.5,1.5,2.2,2.2c0.6-0.6,1.3-1.1,2.1-1.4l-5-5.2c0,0,0,0,0,0
	L15.6,7c-0.5-0.5-1.1-0.7-1.7-0.8c-0.7,0-1.3,0.2-1.8,0.7c0.5,0.5,1,1,1.5,1.5C14.1,9,14.6,9.6,15.1,10.1"/>
<path class="st0" d="M19,0.4c-1.1,0-2.1,0.1-3.1,0.3c1,0.3,2,0.8,2.8,1.5l0,0l11.8,12.1l0.1,0c0.1,0.1,0.2,0.2,0.3,0.3l3.4,3.5
	c1.4,1.4,2.1,3.2,2.1,5.2c0.5-1.6,0.7-3.3,0.7-5v-18H19z"/>
</svg>
